<?xml version="1.0" encoding="UTF-8" standalone="no"?>
<!DOCTYPE svg PUBLIC "-//W3C//DTD SVG 1.1//EN"
 "http://www.w3.org/Graphics/SVG/1.1/DTD/svg11.dtd">
<!-- Generated by graphviz version 2.38.0 (20140413.2041)
 -->
<!-- Title: top.tlv Pages: 1 -->
<svg width="796pt" height="627pt"
 viewBox="0.00 0.00 796.00 626.50" xmlns="http://www.w3.org/2000/svg" xmlns:xlink="http://www.w3.org/1999/xlink">
<g id="graph0" class="graph" transform="scale(1 1) rotate(0) translate(4 622.5)">
<title>top.tlv</title>
<polygon fill="white" stroke="none" points="-4,4 -4,-622.5 792,-622.5 792,4 -4,4"/>
<g id="id0" logical_entity="" class="cluster"><title>cluster.</title>
<g id="a_id0"><a xlink:title="/top">
<path fill="#1090c0" stroke="black" stroke-width="2" d="M20,-8C20,-8 776,-8 776,-8 782,-8 788,-14 788,-20 788,-20 788,-484 788,-484 788,-490 782,-496 776,-496 776,-496 20,-496 20,-496 14,-496 8,-490 8,-484 8,-484 8,-20 8,-20 8,-14 14,-8 20,-8"/>
<text text-anchor="middle" x="398" y="-452" font-family="Times,serif" font-size="50.00">/top</text>
</a>
</g>
</g>
<g id="id1" logical_entity="|calc" class="cluster"><title>cluster.|calc</title>
<g id="a_id1"><a xlink:title="|calc">
<path fill="orange" stroke="black" stroke-width="2.5" d="M28,-16C28,-16 768,-16 768,-16 774,-16 780,-22 780,-28 780,-28 780,-413 780,-413 780,-419 774,-425 768,-425 768,-425 28,-425 28,-425 22,-425 16,-419 16,-413 16,-413 16,-28 16,-28 16,-22 22,-16 28,-16"/>
<text text-anchor="middle" x="398" y="-381" font-family="Times,serif" font-size="50.00">|calc</text>
</a>
</g>
</g>
<g id="id77" logical_entity="|calc@2" class="cluster"><title>cluster.stage1</title>
<g id="a_id77"><a xlink:title="|calc@1">
<polygon fill="darkgreen" stroke="black" stroke-width="1.5" points="114,-130 114,-291 414,-291 414,-130 114,-130"/>
<text text-anchor="middle" x="264" y="-271" font-family="Times,serif" font-size="20.00">@1</text>
</a>
</g>
</g>
<g id="id78" logical_entity="|calc@4" class="cluster"><title>cluster.stage2</title>
<g id="a_id78"><a xlink:title="|calc@2">
<polygon fill="#509050" stroke="black" stroke-width="1.5" points="434,-36 434,-354 594,-354 594,-36 434,-36"/>
<text text-anchor="middle" x="514" y="-334" font-family="Times,serif" font-size="20.00">@2</text>
</a>
</g>
</g>
<g id="id79" logical_entity="|calc@6" class="cluster"><title>cluster.stage3</title>
<g id="a_id79"><a xlink:title="|calc@3">
<polygon fill="darkgreen" stroke="black" stroke-width="1.5" points="630,-69 630,-161 675,-161 675,-69 630,-69"/>
<text text-anchor="middle" x="652.5" y="-141" font-family="Times,serif" font-size="20.00">@3</text>
</a>
</g>
</g>
<g id="id80" logical_entity="|calc@8" class="cluster"><title>cluster.stage4</title>
<g id="a_id80"><a xlink:title="|calc@4">
<polygon fill="#509050" stroke="black" stroke-width="1.5" points="727,-69 727,-161 772,-161 772,-69 727,-69"/>
<text text-anchor="middle" x="749.5" y="-141" font-family="Times,serif" font-size="20.00">@4</text>
</a>
</g>
</g>
<g id="id76" logical_entity="|calc@0" class="cluster"><title>cluster.stage0</title>
<g id="a_id76"><a xlink:title="|calc@0">
<polygon fill="#509050" stroke="black" stroke-width="1.5" points="24,-230 24,-292 94,-292 94,-230 24,-230"/>
<text text-anchor="middle" x="59" y="-272" font-family="Times,serif" font-size="20.00">@0</text>
</a>
</g>
</g>
<!-- |calc$diff@1&#45;&gt;|calc$diff@2 -->
<g id="id4" logical_entity="|calc$diff" class="edge"><title>|calc$diff@1&#45;&gt;|calc$diff@2</title>
<path fill="none" stroke="purple" stroke-width="1.5" d="M406.003,-212.75C406.003,-212.75 451.766,-212.75 451.766,-212.75"/>
<polygon fill="purple" stroke="purple" stroke-width="1.5" points="451.766,-216.25 461.766,-212.75 451.766,-209.25 451.766,-216.25"/>
</g>
<!-- |calc$diff@2&#45;&gt;|calc$out@2 -->
<g id="id27" logical_entity="|calc$diff" class="edge"><title>|calc$diff@2&#45;&gt;|calc$out@2</title>
<g id="a_id27"><a xlink:title="|calc$diff">
<path fill="none" stroke="purple" stroke-width="1.5" d="M476.247,-213C496.802,-213 554,-213 554,-213 554,-213 554,-166.848 554,-166.848"/>
<polygon fill="purple" stroke="purple" stroke-width="1.5" points="557.5,-166.848 554,-156.848 550.5,-166.848 557.5,-166.848"/>
</a>
</g>
</g>
<!-- |calc$mem@2&#45;&gt;|calc$mem@3 -->
<g id="id10" logical_entity="|calc$mem" class="edge"><title>|calc$mem@2&#45;&gt;|calc$mem@3</title>
<path fill="none" stroke="purple" stroke-width="1.5" d="M586.4,-116C586.4,-116 634.838,-116 634.838,-116"/>
<polygon fill="purple" stroke="purple" stroke-width="1.5" points="634.838,-119.5 644.838,-116 634.838,-112.5 634.838,-119.5"/>
</g>
<!-- |calc$mem@3&#45;&gt;|calc$mem@4 -->
<g id="id12" logical_entity="|calc$mem" class="edge"><title>|calc$mem@3&#45;&gt;|calc$mem@4</title>
<path fill="none" stroke="purple" stroke-width="1.5" d="M659.291,-116C659.291,-116 731.888,-116 731.888,-116"/>
<polygon fill="purple" stroke="purple" stroke-width="1.5" points="731.888,-119.5 741.888,-116 731.888,-112.5 731.888,-119.5"/>
</g>
<!-- |calc$mem@4&#45;&gt;|calc$mem@2 -->
<g id="id16" logical_entity="|calc$mem" class="edge"><title>|calc$mem@4&#45;&gt;|calc$mem@2</title>
<g id="a_id16"><a xlink:title="|calc$mem&gt;&gt;2">
<path fill="none" stroke="purple" stroke-width="1.5" d="M747,-123.268C747,-127.195 747,-131.25 747,-131.25 747,-131.25 559,-131.25 559,-131.25 559,-131.25 559,-130.488 559,-130.488"/>
<polygon fill="purple" stroke="purple" stroke-width="1.5" points="562.5,-133.625 559,-123.625 555.5,-133.625 562.5,-133.625"/>
</a>
</g>
</g>
<!-- |calc$mem@4&#45;&gt;|calc$out@2 -->
<g id="id33" logical_entity="|calc$mem" class="edge"><title>|calc$mem@4&#45;&gt;|calc$out@2</title>
<g id="a_id33"><a xlink:title="|calc$mem&gt;&gt;2">
<path fill="none" stroke="purple" stroke-width="1.5" d="M752,-123.086C752,-133.765 752,-152.75 752,-152.75 752,-152.75 596.243,-152.75 596.243,-152.75"/>
<polygon fill="purple" stroke="purple" stroke-width="1.5" points="596.243,-149.25 586.243,-152.75 596.243,-156.25 596.243,-149.25"/>
</a>
</g>
</g>
<!-- |calc$op@2&#45;&gt;|calc$mem@2 -->
<g id="id14" logical_entity="|calc$op" class="edge"><title>|calc$op@2&#45;&gt;|calc$mem@2</title>
<g id="a_id14"><a xlink:title="|calc$op">
<path fill="none" stroke="purple" stroke-width="1.5" d="M492,-91.7179C492,-100.421 492,-113.375 492,-113.375 492,-113.375 521.749,-113.375 521.749,-113.375"/>
<polygon fill="purple" stroke="purple" stroke-width="1.5" points="521.749,-116.875 531.749,-113.375 521.749,-109.875 521.749,-116.875"/>
</a>
</g>
</g>
<!-- |calc$op@2&#45;&gt;|calc$out@2 -->
<g id="id32" logical_entity="|calc$op" class="edge"><title>|calc$op@2&#45;&gt;|calc$out@2</title>
<g id="a_id32"><a xlink:title="|calc$op">
<path fill="none" stroke="purple" stroke-width="1.5" d="M488,-91.5411C488,-107.963 488,-145.5 488,-145.5 488,-145.5 521.753,-145.5 521.753,-145.5"/>
<polygon fill="purple" stroke="purple" stroke-width="1.5" points="521.753,-149 531.753,-145.5 521.753,-142 521.753,-149"/>
</a>
</g>
</g>
<!-- |calc$out@2&#45;&gt;|calc$out@3 -->
<g id="id20" logical_entity="|calc$out" class="edge"><title>|calc$out@2&#45;&gt;|calc$out@3</title>
<path fill="none" stroke="purple" stroke-width="1.5" d="M586.164,-145.25C600.845,-145.25 616,-145.25 616,-145.25 616,-145.25 616,-84 616,-84 616,-84 634.715,-84 634.715,-84"/>
<polygon fill="purple" stroke="purple" stroke-width="1.5" points="634.715,-87.5001 644.715,-84 634.715,-80.5001 634.715,-87.5001"/>
</g>
<!-- |calc$out@3&#45;&gt;|calc$out@4 -->
<g id="id22" logical_entity="|calc$out" class="edge"><title>|calc$out@3&#45;&gt;|calc$out@4</title>
<path fill="none" stroke="purple" stroke-width="1.5" d="M659.291,-81.6667C659.291,-81.6667 731.888,-81.6667 731.888,-81.6667"/>
<polygon fill="purple" stroke="purple" stroke-width="1.5" points="731.888,-85.1668 741.888,-81.6667 731.888,-78.1668 731.888,-85.1668"/>
</g>
<!-- |calc$out@3&#45;&gt;|calc$val1@1 -->
<g id="id68" logical_entity="|calc$out" class="edge"><title>|calc$out@3&#45;&gt;|calc$val1@1</title>
<g id="a_id68"><a xlink:title="|calc$out&gt;&gt;2">
<path fill="none" stroke="purple" stroke-width="1.5" d="M652,-91.251C652,-95.4844 652,-100 652,-100 652,-100 298,-100 298,-100 298,-100 298,-128.404 298,-128.404"/>
<polygon fill="purple" stroke="purple" stroke-width="1.5" points="294.5,-128.404 298,-138.404 301.5,-128.404 294.5,-128.404"/>
</a>
</g>
</g>
<!-- |calc$out@4&#45;&gt;|calc$out@2 -->
<g id="id34" logical_entity="|calc$out" class="edge"><title>|calc$out@4&#45;&gt;|calc$out@2</title>
<g id="a_id34"><a xlink:title="|calc$out&gt;&gt;2">
<path fill="none" stroke="purple" stroke-width="1.5" d="M741.917,-86.3333C728.565,-86.3333 701,-86.3333 701,-86.3333 701,-86.3333 701,-149 701,-149 701,-149 596.043,-149 596.043,-149"/>
<polygon fill="purple" stroke="purple" stroke-width="1.5" points="596.043,-145.5 586.043,-149 596.043,-152.5 596.043,-145.5"/>
</a>
</g>
</g>
<!-- |calc$prod@1&#45;&gt;|calc$prod@2 -->
<g id="id38" logical_entity="|calc$prod" class="edge"><title>|calc$prod@1&#45;&gt;|calc$prod@2</title>
<path fill="none" stroke="purple" stroke-width="1.5" d="M406.003,-245C406.003,-245 451.766,-245 451.766,-245"/>
<polygon fill="purple" stroke="purple" stroke-width="1.5" points="451.766,-248.5 461.766,-245 451.766,-241.5 451.766,-248.5"/>
</g>
<!-- |calc$prod@2&#45;&gt;|calc$out@2 -->
<g id="id29" logical_entity="|calc$prod" class="edge"><title>|calc$prod@2&#45;&gt;|calc$out@2</title>
<g id="a_id29"><a xlink:title="|calc$prod">
<path fill="none" stroke="purple" stroke-width="1.5" d="M476.216,-245C498.542,-245 565,-245 565,-245 565,-245 565,-166.533 565,-166.533"/>
<polygon fill="purple" stroke="purple" stroke-width="1.5" points="568.5,-166.533 565,-156.533 561.5,-166.533 568.5,-166.533"/>
</a>
</g>
</g>
<!-- |calc$quot@1&#45;&gt;|calc$quot@2 -->
<g id="id44" logical_entity="|calc$quot" class="edge"><title>|calc$quot@1&#45;&gt;|calc$quot@2</title>
<path fill="none" stroke="purple" stroke-width="1.5" d="M406.003,-147.75C406.003,-147.75 451.766,-147.75 451.766,-147.75"/>
<polygon fill="purple" stroke="purple" stroke-width="1.5" points="451.766,-151.25 461.766,-147.75 451.766,-144.25 451.766,-151.25"/>
</g>
<!-- |calc$quot@2&#45;&gt;|calc$out@2 -->
<g id="id31" logical_entity="|calc$quot" class="edge"><title>|calc$quot@2&#45;&gt;|calc$out@2</title>
<g id="a_id31"><a xlink:title="|calc$quot">
<path fill="none" stroke="purple" stroke-width="1.5" d="M476.062,-152.5C476.062,-152.5 521.715,-152.5 521.715,-152.5"/>
<polygon fill="purple" stroke="purple" stroke-width="1.5" points="521.715,-156 531.715,-152.5 521.715,-149 521.715,-156"/>
</a>
</g>
</g>
<!-- |calc$rand2@1&#45;&gt;|calc$val2@1 -->
<g id="id70" logical_entity="|calc$rand2" class="edge"><title>|calc$rand2@1&#45;&gt;|calc$val2@1</title>
<g id="a_id70"><a xlink:title="|calc$rand2">
<path fill="none" stroke="purple" stroke-width="1.5" d="M226.364,-217.3C248.496,-217.3 276,-217.3 276,-217.3 276,-217.3 276,-218.213 276,-218.213"/>
<polygon fill="purple" stroke="purple" stroke-width="1.5" points="272.5,-216.432 276,-226.432 279.5,-216.432 272.5,-216.432"/>
</a>
</g>
</g>
<!-- |calc$reset@0&#45;&gt;|calc$reset@1 -->
<g id="id51" logical_entity="|calc$reset" class="edge"><title>|calc$reset@0&#45;&gt;|calc$reset@1</title>
<path fill="none" stroke="purple" stroke-width="1.5" d="M86.2643,-246C86.2643,-246 111.895,-246 111.895,-246"/>
<polygon fill="purple" stroke="purple" stroke-width="1.5" points="111.895,-249.5 121.895,-246 111.895,-242.5 111.895,-249.5"/>
</g>
<!-- |calc$reset@1&#45;&gt;|calc$reset@2 -->
<g id="id53" logical_entity="|calc$reset" class="edge"><title>|calc$reset@1&#45;&gt;|calc$reset@2</title>
<path fill="none" stroke="purple" stroke-width="1.5" d="M129,-253.227C129,-269.775 129,-309 129,-309 129,-309 451.899,-309 451.899,-309"/>
<polygon fill="purple" stroke="purple" stroke-width="1.5" points="451.899,-312.5 461.899,-309 451.899,-305.5 451.899,-312.5"/>
</g>
<!-- |calc$reset@1&#45;&gt;|calc$reset_or_valid@1 -->
<g id="id58" logical_entity="|calc$reset" class="edge"><title>|calc$reset@1&#45;&gt;|calc$reset_or_valid@1</title>
<g id="a_id58"><a xlink:title="|calc$reset">
<path fill="none" stroke="purple" stroke-width="1.5" d="M129,-238.716C129,-222.036 129,-182.5 129,-182.5 129,-182.5 251.858,-182.5 251.858,-182.5"/>
<polygon fill="purple" stroke="purple" stroke-width="1.5" points="251.858,-186 261.858,-182.5 251.858,-179 251.858,-186"/>
</a>
</g>
</g>
<!-- |calc$reset@1&#45;&gt;|calc$valid@1 -->
<g id="id74" logical_entity="|calc$reset" class="edge"><title>|calc$reset@1&#45;&gt;|calc$valid@1</title>
<g id="a_id74"><a xlink:title="|calc$reset">
<path fill="none" stroke="purple" stroke-width="1.5" d="M136.228,-245.75C136.228,-245.75 161.773,-245.75 161.773,-245.75"/>
<polygon fill="purple" stroke="purple" stroke-width="1.5" points="161.773,-249.25 171.773,-245.75 161.773,-242.25 161.773,-249.25"/>
</a>
</g>
</g>
<!-- |calc$reset@2&#45;&gt;|calc$mem@2 -->
<g id="id13" logical_entity="|calc$reset" class="edge"><title>|calc$reset@2&#45;&gt;|calc$mem@2</title>
<g id="a_id13"><a xlink:title="|calc$reset">
<path fill="none" stroke="purple" stroke-width="1.5" d="M476.029,-306.667C478.185,-306.667 480,-306.667 480,-306.667 480,-306.667 480,-116.75 480,-116.75 480,-116.75 521.813,-116.75 521.813,-116.75"/>
<polygon fill="purple" stroke="purple" stroke-width="1.5" points="521.813,-120.25 531.813,-116.75 521.813,-113.25 521.813,-120.25"/>
</a>
</g>
</g>
<!-- |calc$reset@2&#45;&gt;|calc$out@2 -->
<g id="id23" logical_entity="|calc$reset" class="edge"><title>|calc$reset@2&#45;&gt;|calc$out@2</title>
<g id="a_id23"><a xlink:title="|calc$reset">
<path fill="none" stroke="purple" stroke-width="1.5" d="M476.021,-311.333C499.825,-311.333 576,-311.333 576,-311.333 576,-311.333 576,-166.83 576,-166.83"/>
<polygon fill="purple" stroke="purple" stroke-width="1.5" points="579.5,-166.83 576,-156.83 572.5,-166.83 579.5,-166.83"/>
</a>
</g>
</g>
<!-- |calc$reset_or_valid@1&#45;&gt;|calc$diff@1 -->
<g id="id7" logical_entity="|calc$reset_or_valid" class="edge"><title>|calc$reset_or_valid@1&#45;&gt;|calc$diff@1</title>
<g id="a_id7"><a xlink:title="|calc$reset_or_valid">
<path fill="none" stroke="#e04010" stroke-width="1.5" stroke-dasharray="1,5" d="M289,-208.911C289,-211.284 289,-212.9 289,-212.9 289,-212.9 341.997,-212.9 341.997,-212.9"/>
<polygon fill="none" stroke="#e04010" stroke-width="1.5" points="341.997,-216.4 351.997,-212.9 341.997,-209.4 341.997,-216.4"/>
</a>
</g>
</g>
<!-- |calc$reset_or_valid@1&#45;&gt;|calc$prod@1 -->
<g id="id41" logical_entity="|calc$reset_or_valid" class="edge"><title>|calc$reset_or_valid@1&#45;&gt;|calc$prod@1</title>
<g id="a_id41"><a xlink:title="|calc$reset_or_valid">
<path fill="none" stroke="#e04010" stroke-width="1.5" stroke-dasharray="1,5" d="M316.278,-199C319.123,-199 321,-199 321,-199 321,-199 321,-248.1 321,-248.1 321,-248.1 341.698,-248.1 341.698,-248.1"/>
<polygon fill="none" stroke="#e04010" stroke-width="1.5" points="341.698,-251.6 351.698,-248.1 341.698,-244.6 341.698,-251.6"/>
</a>
</g>
</g>
<!-- |calc$reset_or_valid@1&#45;&gt;|calc$quot@1 -->
<g id="id47" logical_entity="|calc$reset_or_valid" class="edge"><title>|calc$reset_or_valid@1&#45;&gt;|calc$quot@1</title>
<g id="a_id47"><a xlink:title="|calc$reset_or_valid">
<path fill="none" stroke="#e04010" stroke-width="1.5" stroke-dasharray="1,5" d="M316.285,-174.5C321.306,-174.5 325,-174.5 325,-174.5 325,-174.5 325,-142.786 325,-142.786 325,-142.786 341.684,-142.786 341.684,-142.786"/>
<polygon fill="none" stroke="#e04010" stroke-width="1.5" points="341.684,-146.286 351.684,-142.786 341.684,-139.286 341.684,-146.286"/>
</a>
</g>
</g>
<!-- |calc$reset_or_valid@1&#45;&gt;|calc$reset_or_valid@2 -->
<g id="id56" logical_entity="|calc$reset_or_valid" class="edge"><title>|calc$reset_or_valid@1&#45;&gt;|calc$reset_or_valid@2</title>
<path fill="none" stroke="purple" stroke-width="1.5" d="M316.319,-193.5C355.767,-193.5 424,-193.5 424,-193.5 424,-193.5 424,-117 424,-117 424,-117 451.969,-117 451.969,-117"/>
<polygon fill="purple" stroke="purple" stroke-width="1.5" points="451.969,-120.5 461.969,-117 451.969,-113.5 451.969,-120.5"/>
</g>
<!-- |calc$reset_or_valid@1&#45;&gt;|calc$sum@1 -->
<g id="id64" logical_entity="|calc$reset_or_valid" class="edge"><title>|calc$reset_or_valid@1&#45;&gt;|calc$sum@1</title>
<g id="a_id64"><a xlink:title="|calc$reset_or_valid">
<path fill="none" stroke="#e04010" stroke-width="1.5" stroke-dasharray="1,5" d="M316.003,-180.5C316.003,-180.5 341.705,-180.5 341.705,-180.5"/>
<polygon fill="none" stroke="#e04010" stroke-width="1.5" points="341.705,-184 351.705,-180.5 341.705,-177 341.705,-184"/>
</a>
</g>
</g>
<!-- |calc$reset_or_valid@2&#45;&gt;|calc$out@2 -->
<g id="id35" logical_entity="|calc$reset_or_valid" class="edge"><title>|calc$reset_or_valid@2&#45;&gt;|calc$out@2</title>
<g id="a_id35"><a xlink:title="|calc$reset_or_valid">
<path fill="none" stroke="#e04010" stroke-width="1.5" stroke-dasharray="1,5" d="M476.149,-120.125C480.012,-120.125 484,-120.125 484,-120.125 484,-120.125 484,-149 484,-149 484,-149 521.923,-149 521.923,-149"/>
<polygon fill="none" stroke="#e04010" stroke-width="1.5" points="521.923,-152.5 531.923,-149 521.923,-145.5 521.923,-152.5"/>
</a>
</g>
</g>
<!-- |calc$sum@1&#45;&gt;|calc$sum@2 -->
<g id="id61" logical_entity="|calc$sum" class="edge"><title>|calc$sum@1&#45;&gt;|calc$sum@2</title>
<path fill="none" stroke="purple" stroke-width="1.5" d="M406.003,-180.25C406.003,-180.25 451.766,-180.25 451.766,-180.25"/>
<polygon fill="purple" stroke="purple" stroke-width="1.5" points="451.766,-183.75 461.766,-180.25 451.766,-176.75 451.766,-183.75"/>
</g>
<!-- |calc$sum@2&#45;&gt;|calc$out@2 -->
<g id="id25" logical_entity="|calc$sum" class="edge"><title>|calc$sum@2&#45;&gt;|calc$out@2</title>
<g id="a_id25"><a xlink:title="|calc$sum">
<path fill="none" stroke="purple" stroke-width="1.5" d="M476.095,-181C494.617,-181 543,-181 543,-181 543,-181 543,-166.746 543,-166.746"/>
<polygon fill="purple" stroke="purple" stroke-width="1.5" points="546.5,-166.746 543,-156.746 539.5,-166.746 546.5,-166.746"/>
</a>
</g>
</g>
<!-- |calc$val1@1&#45;&gt;|calc$diff@1 -->
<g id="id5" logical_entity="|calc$val1" class="edge"><title>|calc$val1@1&#45;&gt;|calc$diff@1</title>
<g id="a_id5"><a xlink:title="|calc$val1">
<path fill="none" stroke="purple" stroke-width="1.5" d="M316.049,-149.214C327.83,-149.214 339,-149.214 339,-149.214 339,-149.214 339,-210.7 339,-210.7 339,-210.7 341.656,-210.7 341.656,-210.7"/>
<polygon fill="purple" stroke="purple" stroke-width="1.5" points="341.656,-214.2 351.656,-210.7 341.656,-207.2 341.656,-214.2"/>
</a>
</g>
</g>
<!-- |calc$val1@1&#45;&gt;|calc$prod@1 -->
<g id="id39" logical_entity="|calc$val1" class="edge"><title>|calc$val1@1&#45;&gt;|calc$prod@1</title>
<g id="a_id39"><a xlink:title="|calc$val1">
<path fill="none" stroke="purple" stroke-width="1.5" d="M316.215,-151.357C325.692,-151.357 334,-151.357 334,-151.357 334,-151.357 334,-243.7 334,-243.7 334,-243.7 341.785,-243.7 341.785,-243.7"/>
<polygon fill="purple" stroke="purple" stroke-width="1.5" points="341.785,-247.2 351.785,-243.7 341.785,-240.2 341.785,-247.2"/>
</a>
</g>
</g>
<!-- |calc$val1@1&#45;&gt;|calc$quot@1 -->
<g id="id45" logical_entity="|calc$val1" class="edge"><title>|calc$val1@1&#45;&gt;|calc$quot@1</title>
<g id="a_id45"><a xlink:title="|calc$val1">
<path fill="none" stroke="purple" stroke-width="1.5" d="M316.003,-140.643C316.003,-140.643 341.705,-140.643 341.705,-140.643"/>
<polygon fill="purple" stroke="purple" stroke-width="1.5" points="341.705,-144.143 351.705,-140.643 341.705,-137.143 341.705,-144.143"/>
</a>
</g>
</g>
<!-- |calc$val1@1&#45;&gt;|calc$sum@1 -->
<g id="id62" logical_entity="|calc$val1" class="edge"><title>|calc$val1@1&#45;&gt;|calc$sum@1</title>
<g id="a_id62"><a xlink:title="|calc$val1">
<path fill="none" stroke="purple" stroke-width="1.5" d="M316.082,-147.071C331.593,-147.071 348,-147.071 348,-147.071 348,-147.071 348,-177.5 348,-177.5 348,-177.5 348.38,-177.5 348.38,-177.5"/>
<polygon fill="purple" stroke="purple" stroke-width="1.5" points="341.801,-181 351.801,-177.5 341.801,-174 341.801,-181"/>
</a>
</g>
</g>
<!-- |calc$val1@1&#45;&gt;|calc$val1@2 -->
<g id="id67" logical_entity="|calc$val1" class="edge"><title>|calc$val1@1&#45;&gt;|calc$val1@2</title>
<path fill="none" stroke="purple" stroke-width="1.5" d="M280,-138.226C280,-115.537 280,-51 280,-51 280,-51 451.822,-51 451.822,-51"/>
<polygon fill="purple" stroke="purple" stroke-width="1.5" points="451.822,-54.5001 461.822,-51 451.822,-47.5001 451.822,-54.5001"/>
</g>
<!-- |calc$val1@2&#45;&gt;|calc$mem@2 -->
<g id="id15" logical_entity="|calc$val1" class="edge"><title>|calc$val1@2&#45;&gt;|calc$mem@2</title>
<g id="a_id15"><a xlink:title="|calc$val1">
<path fill="none" stroke="purple" stroke-width="1.5" d="M476.062,-51C497.279,-51 559,-51 559,-51 559,-51 559,-98.2884 559,-98.2884"/>
<polygon fill="purple" stroke="purple" stroke-width="1.5" points="555.5,-98.2884 559,-108.288 562.5,-98.2884 555.5,-98.2884"/>
</a>
</g>
</g>
<!-- |calc$val2@1&#45;&gt;|calc$diff@1 -->
<g id="id6" logical_entity="|calc$val2" class="edge"><title>|calc$val2@1&#45;&gt;|calc$diff@1</title>
<g id="a_id6"><a xlink:title="|calc$val2">
<path fill="none" stroke="purple" stroke-width="1.5" d="M303,-226.313C303,-221.08 303,-215.1 303,-215.1 303,-215.1 341.991,-215.1 341.991,-215.1"/>
<polygon fill="purple" stroke="purple" stroke-width="1.5" points="341.991,-218.6 351.991,-215.1 341.991,-211.6 341.991,-218.6"/>
</a>
</g>
</g>
<!-- |calc$val2@1&#45;&gt;|calc$prod@1 -->
<g id="id40" logical_entity="|calc$val2" class="edge"><title>|calc$val2@1&#45;&gt;|calc$prod@1</title>
<g id="a_id40"><a xlink:title="|calc$val2">
<path fill="none" stroke="purple" stroke-width="1.5" d="M289,-241.768C289,-245.966 289,-250.3 289,-250.3 289,-250.3 341.997,-250.3 341.997,-250.3"/>
<polygon fill="purple" stroke="purple" stroke-width="1.5" points="341.997,-253.8 351.997,-250.3 341.997,-246.8 341.997,-253.8"/>
</a>
</g>
</g>
<!-- |calc$val2@1&#45;&gt;|calc$quot@1 -->
<g id="id46" logical_entity="|calc$val2" class="edge"><title>|calc$val2@1&#45;&gt;|calc$quot@1</title>
<g id="a_id46"><a xlink:title="|calc$val2">
<path fill="none" stroke="purple" stroke-width="1.5" d="M316.119,-230.167C323.744,-230.167 330,-230.167 330,-230.167 330,-230.167 330,-144.929 330,-144.929 330,-144.929 341.92,-144.929 341.92,-144.929"/>
<polygon fill="purple" stroke="purple" stroke-width="1.5" points="341.92,-148.429 351.92,-144.929 341.92,-141.429 341.92,-148.429"/>
</a>
</g>
</g>
<!-- |calc$val2@1&#45;&gt;|calc$sum@1 -->
<g id="id63" logical_entity="|calc$val2" class="edge"><title>|calc$val2@1&#45;&gt;|calc$sum@1</title>
<g id="a_id63"><a xlink:title="|calc$val2">
<path fill="none" stroke="purple" stroke-width="1.5" d="M316.316,-233.833C329.71,-233.833 343,-233.833 343,-233.833 343,-233.833 343,-183.5 343,-183.5 343,-183.5 343.871,-183.5 343.871,-183.5"/>
<polygon fill="purple" stroke="purple" stroke-width="1.5" points="341.715,-187 351.715,-183.5 341.715,-180 341.715,-187"/>
</a>
</g>
</g>
<!-- |calc$valid@1&#45;&gt;|calc$reset_or_valid@1 -->
<g id="id57" logical_entity="|calc$valid" class="edge"><title>|calc$valid@1&#45;&gt;|calc$reset_or_valid@1</title>
<g id="a_id57"><a xlink:title="|calc$valid">
<path fill="none" stroke="purple" stroke-width="1.5" d="M226.215,-245.9C235.692,-245.9 244,-245.9 244,-245.9 244,-245.9 244,-193.5 244,-193.5 244,-193.5 251.785,-193.5 251.785,-193.5"/>
<polygon fill="purple" stroke="purple" stroke-width="1.5" points="251.785,-197 261.785,-193.5 251.785,-190 251.785,-197"/>
</a>
</g>
</g>
<!-- |calc$valid@1&#45;&gt;|calc$valid@2 -->
<g id="id73" logical_entity="|calc$valid" class="edge"><title>|calc$valid@1&#45;&gt;|calc$valid@2</title>
<path fill="none" stroke="purple" stroke-width="1.5" d="M190,-252.62C190,-262.735 190,-279.333 190,-279.333 190,-279.333 451.823,-279.333 451.823,-279.333"/>
<polygon fill="purple" stroke="purple" stroke-width="1.5" points="451.823,-282.833 461.823,-279.333 451.823,-275.833 451.823,-282.833"/>
</g>
<!-- |calc$valid@2&#45;&gt;|calc$valid@1 -->
<g id="id75" logical_entity="|calc$valid" class="edge"><title>|calc$valid@2&#45;&gt;|calc$valid@1</title>
<g id="a_id75"><a xlink:title="|calc$valid&gt;&gt;1">
<path fill="none" stroke="purple" stroke-width="1.5" d="M461.747,-274.667C419.594,-274.667 208,-274.667 208,-274.667 208,-274.667 208,-262.795 208,-262.795"/>
<polygon fill="purple" stroke="purple" stroke-width="1.5" points="211.5,-262.795 208,-252.795 204.5,-262.795 211.5,-262.795"/>
</a>
</g>
</g>
<!-- |calc$diff@1 -->
<g id="id2" logical_entity="|calc$diff" class="node"><title>|calc$diff@1</title>
<g id="a_id2"><a xlink:title="$diff[31:0] = $val1 &#45; $val2;">
<polygon fill="#ffffff" fill-opacity="0.690196" stroke="purple" points="406,-219.5 352,-219.5 352,-204.5 406,-204.5 406,-219.5"/>
<text text-anchor="middle" x="379" y="-209.5" font-family="Times,serif" font-size="10.00" fill="purple">$diff=</text>
</a>
</g>
</g>
<!-- |calc$diff@2 -->
<g id="id3" logical_entity="|calc$diff" class="node"><title>|calc$diff@2</title>
<polygon fill="grey" stroke="purple" points="476,-220 462,-220 462,-206 476,-206 476,-220"/>
</g>
<!-- |calc$mem@2 -->
<g id="id8" logical_entity="|calc$mem" class="node"><title>|calc$mem@2</title>
<g id="a_id8"><a xlink:title="$mem[31:0] = $reset &#160;&#160;&#160;&#160;&#160;&#160;&#160;&#160;&#160;&#160;? 32&#39;b0 :
 &#160;&#160;&#160;&#160;&#160;&#160;&#160;&#160;&#160;&#160;&#160;&#160;&#160;&#160;&#160;&#160;&#160;&#160;&#160;&#160;&#160;&#160;&#160;&#160;($op[2:0] == 3&#39;b101) ? $val1 :
 &#160;&#160;&#160;&#160;&#160;&#160;&#160;&#160;&#160;&#160;&#160;&#160;&#160;&#160;&#160;&#160;&#160;&#160;&#160;&#160;&#160;&#160;&#160;&#160;&#160;&#160;&#160;&#160;&#160;&#160;&#160;&#160;&#160;&#160;&#160;&#160;&#160;&#160;&#160;&#160;&#160;&#160;&#160;&gt;&gt;2$mem;">
<polygon fill="#ffffff" fill-opacity="0.690196" stroke="purple" points="586,-123.5 532,-123.5 532,-108.5 586,-108.5 586,-123.5"/>
<text text-anchor="middle" x="559" y="-113.5" font-family="Times,serif" font-size="10.00" fill="purple">$mem=</text>
</a>
</g>
</g>
<!-- |calc$mem@3 -->
<g id="id9" logical_entity="|calc$mem" class="node"><title>|calc$mem@3</title>
<polygon fill="grey" stroke="purple" points="659,-123 645,-123 645,-109 659,-109 659,-123"/>
</g>
<!-- |calc$mem@4 -->
<g id="id11" logical_entity="|calc$mem" class="node"><title>|calc$mem@4</title>
<polygon fill="grey" stroke="purple" points="756,-123 742,-123 742,-109 756,-109 756,-123"/>
</g>
<!-- |calc$op@2 -->
<g id="id17" logical_entity="|calc$op" class="node"><title>|calc$op@2</title>
<g id="a_id17"><a xlink:title="$op[2:0] = &#39;x;">
<polygon fill="#ffffff" fill-opacity="0.690196" stroke="purple" points="496,-91.5 442,-91.5 442,-76.5 496,-76.5 496,-91.5"/>
<text text-anchor="middle" x="469" y="-81.5" font-family="Times,serif" font-size="10.00" fill="purple">$op=</text>
</a>
</g>
</g>
<!-- |calc$out@2 -->
<g id="id18" logical_entity="|calc$out" class="node"><title>|calc$out@2</title>
<g id="a_id18"><a xlink:title="$out[31:0] = $reset &#160;&#160;&#160;&#160;&#160;&#160;&#160;&#160;&#160;&#160;? 32&#39;b0 :
 &#160;&#160;&#160;&#160;&#160;&#160;&#160;&#160;&#160;&#160;&#160;&#160;&#160;&#160;&#160;&#160;&#160;&#160;&#160;&#160;&#160;&#160;&#160;&#160;($op == 3&#39;b000) ? $sum &#160;:
 &#160;&#160;&#160;&#160;&#160;&#160;&#160;&#160;&#160;&#160;&#160;&#160;&#160;&#160;&#160;&#160;&#160;&#160;&#160;&#160;&#160;&#160;&#160;&#160;($op == 3&#39;b001) ? $diff :
 &#160;&#160;&#160;&#160;&#160;&#160;&#160;&#160;&#160;&#160;&#160;&#160;&#160;&#160;&#160;&#160;&#160;&#160;&#160;&#160;&#160;&#160;&#160;&#160;($op == 3&#39;b010) ? $prod :
 &#160;&#160;&#160;&#160;&#160;&#160;&#160;&#160;&#160;&#160;&#160;&#160;&#160;&#160;&#160;&#160;&#160;&#160;&#160;&#160;&#160;&#160;&#160;&#160;($op == 3&#39;b010) ? $quot : 
 &#160;&#160;&#160;&#160;&#160;&#160;&#160;&#160;&#160;&#160;&#160;&#160;&#160;&#160;&#160;&#160;&#160;&#160;&#160;&#160;&#160;&#160;&#160;&#160;($op == 3&#39;b100) ? &gt;&gt;2$mem : &gt;&gt;2$out;">
<polygon fill="#ffffff" fill-opacity="0.690196" stroke="purple" points="586,-156.5 532,-156.5 532,-141.5 586,-141.5 586,-156.5"/>
<text text-anchor="middle" x="559" y="-146.5" font-family="Times,serif" font-size="10.00" fill="purple">$out=</text>
</a>
</g>
</g>
<!-- |calc$out@3 -->
<g id="id19" logical_entity="|calc$out" class="node"><title>|calc$out@3</title>
<polygon fill="grey" stroke="purple" points="659,-91 645,-91 645,-77 659,-77 659,-91"/>
</g>
<!-- |calc$out@4 -->
<g id="id21" logical_entity="|calc$out" class="node"><title>|calc$out@4</title>
<polygon fill="grey" stroke="purple" points="756,-91 742,-91 742,-77 756,-77 756,-91"/>
</g>
<!-- |calc$prod@1 -->
<g id="id36" logical_entity="|calc$prod" class="node"><title>|calc$prod@1</title>
<g id="a_id36"><a xlink:title="$prod[31:0] = $val1 * $val2;">
<polygon fill="#ffffff" fill-opacity="0.690196" stroke="purple" points="406,-252.5 352,-252.5 352,-237.5 406,-237.5 406,-252.5"/>
<text text-anchor="middle" x="379" y="-242.5" font-family="Times,serif" font-size="10.00" fill="purple">$prod=</text>
</a>
</g>
</g>
<!-- |calc$prod@2 -->
<g id="id37" logical_entity="|calc$prod" class="node"><title>|calc$prod@2</title>
<polygon fill="grey" stroke="purple" points="476,-252 462,-252 462,-238 476,-238 476,-252"/>
</g>
<!-- |calc$quot@1 -->
<g id="id42" logical_entity="|calc$quot" class="node"><title>|calc$quot@1</title>
<g id="a_id42"><a xlink:title="$quot[31:0] = $val1 / $val2;">
<polygon fill="#ffffff" fill-opacity="0.690196" stroke="purple" points="406,-153.5 352,-153.5 352,-138.5 406,-138.5 406,-153.5"/>
<text text-anchor="middle" x="379" y="-143.5" font-family="Times,serif" font-size="10.00" fill="purple">$quot=</text>
</a>
</g>
</g>
<!-- |calc$quot@2 -->
<g id="id43" logical_entity="|calc$quot" class="node"><title>|calc$quot@2</title>
<polygon fill="grey" stroke="purple" points="476,-156 462,-156 462,-142 476,-142 476,-156"/>
</g>
<!-- |calc$rand2@1 -->
<g id="id48" logical_entity="|calc$rand2" class="node"><title>|calc$rand2@1</title>
<g id="a_id48"><a xlink:title="$rand2[3:0] = &#39;x;">
<polygon fill="#ffffff" fill-opacity="0.690196" stroke="purple" points="226,-219.5 172,-219.5 172,-204.5 226,-204.5 226,-219.5"/>
<text text-anchor="middle" x="199" y="-209.5" font-family="Times,serif" font-size="10.00" fill="purple">$rand2=</text>
</a>
</g>
</g>
<!-- |calc$reset@0 -->
<g id="id49" logical_entity="|calc$reset" class="node"><title>|calc$reset@0</title>
<g id="a_id49"><a xlink:title="$reset = *reset;">
<polygon fill="#ffffff" fill-opacity="0.690196" stroke="purple" points="86,-253.5 32,-253.5 32,-238.5 86,-238.5 86,-253.5"/>
<text text-anchor="middle" x="59" y="-243.5" font-family="Times,serif" font-size="10.00" fill="purple">$reset=</text>
</a>
</g>
</g>
<!-- |calc$reset@1 -->
<g id="id50" logical_entity="|calc$reset" class="node"><title>|calc$reset@1</title>
<polygon fill="grey" stroke="purple" points="136,-253 122,-253 122,-239 136,-239 136,-253"/>
</g>
<!-- |calc$reset@2 -->
<g id="id52" logical_entity="|calc$reset" class="node"><title>|calc$reset@2</title>
<polygon fill="grey" stroke="purple" points="476,-316 462,-316 462,-302 476,-302 476,-316"/>
</g>
<!-- |calc$reset_or_valid@1 -->
<g id="id54" logical_entity="|calc$reset_or_valid" class="node"><title>|calc$reset_or_valid@1</title>
<g id="a_id54"><a xlink:title="$reset_or_valid = $valid || $reset;">
<polygon fill="#ffffff" fill-opacity="0.690196" stroke="purple" points="316,-208.5 262,-208.5 262,-171.5 316,-171.5 316,-208.5"/>
<text text-anchor="middle" x="289" y="-198.5" font-family="Times,serif" font-size="10.00" fill="purple">$reset_</text>
<text text-anchor="middle" x="289" y="-187.5" font-family="Times,serif" font-size="10.00" fill="purple"> or_</text>
<text text-anchor="middle" x="289" y="-176.5" font-family="Times,serif" font-size="10.00" fill="purple"> valid=</text>
</a>
</g>
</g>
<!-- |calc$reset_or_valid@2 -->
<g id="id55" logical_entity="|calc$reset_or_valid" class="node"><title>|calc$reset_or_valid@2</title>
<polygon fill="grey" stroke="purple" points="476,-124 462,-124 462,-110 476,-110 476,-124"/>
</g>
<!-- |calc$sum@1 -->
<g id="id59" logical_entity="|calc$sum" class="node"><title>|calc$sum@1</title>
<g id="a_id59"><a xlink:title="$sum[31:0] = $val1 + $val2;">
<polygon fill="#ffffff" fill-opacity="0.690196" stroke="purple" points="406,-186.5 352,-186.5 352,-171.5 406,-171.5 406,-186.5"/>
<text text-anchor="middle" x="379" y="-176.5" font-family="Times,serif" font-size="10.00" fill="purple">$sum=</text>
</a>
</g>
</g>
<!-- |calc$sum@2 -->
<g id="id60" logical_entity="|calc$sum" class="node"><title>|calc$sum@2</title>
<polygon fill="grey" stroke="purple" points="476,-188 462,-188 462,-174 476,-174 476,-188"/>
</g>
<!-- |calc$val1@1 -->
<g id="id65" logical_entity="|calc$val1" class="node"><title>|calc$val1@1</title>
<g id="a_id65"><a xlink:title="$val1[31:0] = &gt;&gt;2$out;">
<polygon fill="#ffffff" fill-opacity="0.690196" stroke="purple" points="316,-153.5 262,-153.5 262,-138.5 316,-138.5 316,-153.5"/>
<text text-anchor="middle" x="289" y="-143.5" font-family="Times,serif" font-size="10.00" fill="purple">$val1=</text>
</a>
</g>
</g>
<!-- |calc$val1@2 -->
<g id="id66" logical_entity="|calc$val1" class="node"><title>|calc$val1@2</title>
<polygon fill="grey" stroke="purple" points="476,-58 462,-58 462,-44 476,-44 476,-58"/>
</g>
<!-- |calc$val2@1 -->
<g id="id69" logical_entity="|calc$val2" class="node"><title>|calc$val2@1</title>
<g id="a_id69"><a xlink:title="$val2[31:0] = $rand2[3:0];">
<polygon fill="#ffffff" fill-opacity="0.690196" stroke="purple" points="316,-241.5 262,-241.5 262,-226.5 316,-226.5 316,-241.5"/>
<text text-anchor="middle" x="289" y="-231.5" font-family="Times,serif" font-size="10.00" fill="purple">$val2=</text>
</a>
</g>
</g>
<!-- |calc$valid@1 -->
<g id="id71" logical_entity="|calc$valid" class="node"><title>|calc$valid@1</title>
<g id="a_id71"><a xlink:title="$valid = $reset ? 1&#39;b0 : &gt;&gt;1$valid + 1&#39;b1;">
<polygon fill="#ffffff" fill-opacity="0.690196" stroke="purple" points="226,-252.5 172,-252.5 172,-237.5 226,-237.5 226,-252.5"/>
<text text-anchor="middle" x="199" y="-242.5" font-family="Times,serif" font-size="10.00" fill="purple">$valid=</text>
</a>
</g>
</g>
<!-- |calc$valid@2 -->
<g id="id72" logical_entity="|calc$valid" class="node"><title>|calc$valid@2</title>
<polygon fill="grey" stroke="purple" points="476,-284 462,-284 462,-270 476,-270 476,-284"/>
</g>
<!-- *cyc_cnt -->
<g id="node27" class="node"><title>*cyc_cnt</title>
<polygon fill="white" stroke="#00008b" points="86,-519.5 32,-519.5 32,-504.5 86,-504.5 86,-519.5"/>
<text text-anchor="middle" x="59" y="-509.5" font-family="Times,serif" font-size="10.00" fill="#00008b">*cyc_cnt</text>
</g>
<!-- *failed -->
<g id="node28" class="node"><title>*failed</title>
<polygon fill="white" stroke="#00008b" points="86,-552.5 32,-552.5 32,-537.5 86,-537.5 86,-552.5"/>
<text text-anchor="middle" x="59" y="-542.5" font-family="Times,serif" font-size="10.00" fill="#00008b">*failed</text>
</g>
<!-- *passed -->
<g id="node29" class="node"><title>*passed</title>
<polygon fill="white" stroke="#00008b" points="86,-585.5 32,-585.5 32,-570.5 86,-570.5 86,-585.5"/>
<text text-anchor="middle" x="59" y="-575.5" font-family="Times,serif" font-size="10.00" fill="#00008b">*passed</text>
</g>
<!-- *reset -->
<g id="node30" class="node"><title>*reset</title>
<polygon fill="white" stroke="#00008b" points="86,-618.5 32,-618.5 32,-603.5 86,-603.5 86,-618.5"/>
<text text-anchor="middle" x="59" y="-608.5" font-family="Times,serif" font-size="10.00" fill="#00008b">*reset</text>
</g>
</g>
</svg>
